HIERARCHY
ROOT Hips
{
 OFFSET 0.000000 0.000000 0.000000
 CHANNELS 6 Xposition Yposition Zposition Yrotation Xrotation Zrotation
 JOINT Chest
 {
  OFFSET 0.000000 9.585900 0.002600
  CHANNELS 3 Yrotation Xrotation Zrotation
  JOINT Chest2
  {
   OFFSET 0.000000 9.601200 -0.005300
   CHANNELS 3 Yrotation Xrotation Zrotation
   JOINT Chest3
   {
    OFFSET 0.000000 9.561800 0.000000
    CHANNELS 3 Yrotation Xrotation Zrotation
    JOINT Chest4
    {
     OFFSET 0.000000 9.552100 0.000000
     CHANNELS 3 Yrotation Xrotation Zrotation
     JOINT Neck
     {
      OFFSET 0.000000 14.453000 0.000000
      CHANNELS 3 Yrotation Xrotation Zrotation
      JOINT Head
      {
       OFFSET 0.000000 8.936500 -0.011300
       CHANNELS 3 Yrotation Xrotation Zrotation
       End Site
       {
        OFFSET 0.000000 17.073600 -0.006000
       }
      }
     }
     JOINT RightCollar
     {
      OFFSET -2.921100 9.558500 0.000000
      CHANNELS 3 Yrotation Xrotation Zrotation
      JOINT RightShoulder
      {
       OFFSET -13.519700 0.000000 0.000000
       CHANNELS 3 Yrotation Xrotation Zrotation
       JOINT RightElbow
       {
        OFFSET 0.000000 -29.696600 0.000000
        CHANNELS 3 Yrotation Xrotation Zrotation
        JOINT RightWrist
        {
         OFFSET 0.000000 -24.004700 0.000000
         CHANNELS 3 Yrotation Xrotation Zrotation
         End Site
         {
          OFFSET 0.000000 -17.728500 0.000000
         }
        }
       }
      }
     }
     JOINT LeftCollar
     {
      OFFSET 2.921100 9.558500 0.000000
      CHANNELS 3 Yrotation Xrotation Zrotation
      JOINT LeftShoulder
      {
       OFFSET 13.519700 0.000000 0.000000
       CHANNELS 3 Yrotation Xrotation Zrotation
       JOINT LeftElbow
       {
        OFFSET 0.000000 -29.696600 0.000000
        CHANNELS 3 Yrotation Xrotation Zrotation
        JOINT LeftWrist
        {
         OFFSET 0.000000 -24.004700 0.000000
         CHANNELS 3 Yrotation Xrotation Zrotation
         End Site
         {
          OFFSET 0.000000 -17.728500 0.000000
         }
        }
       }
      }
     }
    }
   }
  }
 }
 JOINT RightHip
 {
  OFFSET -7.771700 -0.012900 -0.001300
  CHANNELS 3 Yrotation Xrotation Zrotation
  JOINT RightKnee
  {
   OFFSET 0.000000 -40.869800 0.001200
   CHANNELS 3 Yrotation Xrotation Zrotation
   JOINT RightAnkle
   {
    OFFSET 0.000000 -39.717900 0.002100
    CHANNELS 3 Yrotation Xrotation Zrotation
    JOINT RightToe
    {
     OFFSET 0.000000 -4.965400 11.033500
     CHANNELS 3 Yrotation Xrotation Zrotation
     End Site
     {
      OFFSET 0.000000 -1.423100 5.872300
     }
    }
   }
  }
 }
 JOINT LeftHip
 {
  OFFSET 7.771700 -0.012900 -0.001300
  CHANNELS 3 Yrotation Xrotation Zrotation
  JOINT LeftKnee
  {
   OFFSET 0.000000 -40.869800 0.001200
   CHANNELS 3 Yrotation Xrotation Zrotation
   JOINT LeftAnkle
   {
    OFFSET 0.000000 -39.717900 0.002100
    CHANNELS 3 Yrotation Xrotation Zrotation
    JOINT LeftToe
    {
     OFFSET 0.000000 -4.965400 11.033500
     CHANNELS 3 Yrotation Xrotation Zrotation
     End Site
     {
      OFFSET 0.000000 -1.423100 5.872300
     }
    }
   }
  }
 }
}
MOTION
Frames: 12
Frame Time: 0.008333
-114.031866 58.303897 98.363618 174.884286 -23.463193 -1.694166 5.641436 20.604552 2.269305 0.657355 2.695748 0.175622 1.082150 4.473469 0.301305 4.518612 17.548651 1.723871 -3.743655 9.674157 -0.008763 -7.276423 -17.730564 1.713870 -2.240446 0.393277 0.789069 -4.712980 -13.545181 -6.493111 131.303972 -51.708744 -128.215387 17.550159 -14.223761 -54.192079 -3.205927 0.741042 -0.386414 19.582448 -9.272201 -8.402413 -107.785977 -37.939598 119.742211 -16.630021 -19.847807 44.463674 6.652577 -51.937918 2.586858 -15.715923 67.887825 -21.875779 5.955998 24.785954 5.593163 -1.001805 -18.805162 5.754537 -4.573200 -48.870027 2.397717 24.546190 66.391122 23.557716 -15.412005 3.745794 -1.623996 -0.049993 0.070838 -0.010116
-114.029838 58.302167 98.365455 174.886178 -23.461894 -1.672394 5.627755 20.569432 2.246302 0.657317 2.707349 0.173522 1.075943 4.412309 0.296566 4.517269 17.534036 1.712610 -3.703081 9.658798 -0.022403 -7.192158 -17.762068 1.669817 -2.231414 0.366784 0.786134 -4.728858 -13.469813 -6.495500 131.361530 -51.677313 -128.261939 17.522962 -14.186139 -54.160509 -3.198781 0.738630 -0.376224 19.626035 -9.257276 -8.384528 -107.829895 -37.948975 119.780562 -16.631279 -19.837996 44.453092 6.630491 -51.950777 2.570129 -15.699695 67.903383 -21.867404 5.971367 24.796105 5.596894 -0.999811 -18.816637 5.735002 -4.535466 -48.869191 2.371705 24.518987 66.389792 23.523804 -15.423668 3.744782 -1.617858 -0.040588 0.073134 -0.008378
-114.024191 58.300375 98.367448 174.884943 -23.457395 -1.669255 5.624095 20.525531 2.244083 0.657371 2.721588 0.171396 1.070944 4.363180 0.294511 4.519968 17.556336 1.709853 -3.666316 9.588921 -0.043905 -7.103479 -17.790966 1.619559 -2.226367 0.288389 0.775443 -4.757720 -13.476319 -6.515789 131.374206 -51.709085 -128.230351 17.550051 -14.237811 -54.214789 -3.200234 0.685296 -0.372699 19.673848 -9.243555 -8.371838 -107.876311 -37.945251 119.817739 -16.633283 -19.828944 44.436956 6.599469 -51.965696 2.574906 -15.711523 67.911187 -21.855096 5.956549 24.803560 5.543406 -0.983567 -18.819266 5.738506 -4.497149 -48.869554 2.383199 24.429366 66.397204 23.432866 -15.458875 3.739669 -1.623326 -0.014918 0.077972 0.005487
-114.020399 58.298650 98.368450 174.888231 -23.452647 -1.654937 5.611410 20.479477 2.231964 0.650955 2.651160 0.170369 1.071214 4.399416 0.288722 4.522932 17.578377 1.708623 -3.627474 9.522566 -0.067704 -7.009445 -17.810847 1.565555 -2.224104 0.209395 0.763055 -4.779491 -13.483419 -6.534649 131.378968 -51.736462 -128.196194 17.562939 -14.251338 -54.237575 -3.199186 0.687498 -0.368636 19.727397 -9.363081 -8.405081 -107.853380 -37.932219 119.749179 -16.637310 -19.818068 44.418944 6.604895 -51.972958 2.553966 -15.704669 67.915533 -21.847826 5.956198 24.803416 5.544192 -0.982695 -18.818157 5.730669 -4.461694 -48.873711 2.368623 24.427596 66.393977 23.418183 -15.483440 3.742588 -1.611381 -0.012426 0.076120 0.006561
-114.016395 58.297416 98.367934 174.892268 -23.452277 -1.640465 5.597212 20.436825 2.217187 0.651332 2.666521 0.167521 1.066244 4.349869 0.286079 4.509566 17.458938 1.679136 -3.572164 9.608438 -0.076482 -6.910693 -17.812261 1.510800 -2.213150 0.271028 0.768261 -4.795788 -13.463711 -6.547605 131.405373 -51.737657 -128.192963 17.563346 -14.243530 -54.243154 -3.193279 0.743603 -0.351274 19.754305 -9.359615 -8.391611 -107.847921 -37.906922 119.740325 -16.641694 -19.810111 44.402416 6.585555 -51.980294 2.537030 -15.688509 67.928915 -21.823480 5.959851 24.807472 5.530310 -0.977609 -18.824450 5.717368 -4.430505 -48.874357 2.351602 24.439622 66.393382 23.413912 -15.498561 3.744762 -1.592301 -0.017038 0.071587 0.001126
-114.015473 58.296275 98.366439 174.888407 -23.451065 -1.603567 5.584041 20.394620 2.182079 0.651027 2.682150 0.164721 1.060391 4.299419 0.286157 4.503007 17.394414 1.660923 -3.540776 9.699350 -0.079186 -6.783715 -17.840991 1.444704 -2.205999 0.276972 0.762927 -4.817936 -13.446772 -6.560039 131.443138 -51.738681 -128.196715 17.565231 -14.230083 -54.250152 -3.192511 0.736073 -0.343894 19.767431 -9.326189 -8.364714 -107.859116 -37.876819 119.765128 -16.645333 -19.809016 44.389481 6.575654 -51.990115 2.498622 -15.664441 67.945624 -21.801632 5.975706 24.814029 5.520900 -0.975576 -18.834231 5.700824 -4.381247 -48.877795 2.305958 24.478986 66.396168 23.418301 -15.480844 3.748984 -1.549765 -0.053700 0.066112 -0.008611
-114.012023 58.295340 98.364784 174.888452 -23.447728 -1.583166 5.571550 20.349227 2.165989 0.648997 2.668600 0.162638 1.055967 4.277374 0.284930 4.498222 17.358329 1.649402 -3.510600 9.765264 -0.088184 -6.650667 -17.844055 1.376124 -2.197465 0.324185 0.758944 -4.842040 -13.503465 -6.577030 131.486796 -51.741868 -128.207397 17.566487 -14.213870 -54.253682 -3.189309 0.725564 -0.342852 19.774980 -9.320758 -8.349535 -107.873406 -37.845215 119.788403 -16.649072 -19.808273 44.380598 6.557962 -52.001147 2.478817 -15.672817 67.960863 -21.802302 5.980496 24.808474 5.501577 -0.970233 -18.834003 5.688993 -4.332244 -48.881374 2.277609 24.439375 66.402251 23.377988 -15.494154 3.753608 -1.554345 -0.050787 0.058801 -0.001303
-114.008647 58.294834 98.362228 174.890853 -23.446420 -1.563007 5.555075 20.304361 2.151051 0.646568 2.654957 0.160509 1.052395 4.257638 0.283364 4.492042 17.322329 1.639316 -3.458587 9.788329 -0.109843 -6.536871 -17.784918 1.313849 -2.187474 0.264342 0.738232 -4.866730 -13.457804 -6.590286 131.531756 -51.745554 -128.221081 17.565473 -14.198584 -54.250845 -3.183417 0.712546 -0.344529 19.776890 -9.318692 -8.335934 -107.893496 -37.819256 119.813001 -16.651292 -19.805990 44.371669 6.546448 -52.010175 2.451830 -15.785005 67.967513 -21.882891 5.998013 24.793409 5.449972 -0.949310 -18.827407 5.687500 -4.256073 -48.878488 2.250119 24.344228 66.411324 23.275982 -15.523809 3.759454 -1.539233 -0.035522 0.056737 0.010934
-114.006822 58.294312 98.359696 174.888768 -23.441456 -1.532248 5.541006 20.257420 2.127827 0.636047 2.583227 0.169301 1.052782 4.294951 0.272552 4.493789 17.344846 1.633514 -3.409417 9.761897 -0.130049 -6.422954 -17.725748 1.249991 -2.182564 0.146119 0.715788 -4.889997 -13.416147 -6.603020 131.580802 -51.747656 -128.237800 17.561488 -14.184883 -54.244384 -3.184072 0.640610 -0.345282 19.776931 -9.320018 -8.323906 -107.919775 -37.803839 119.838805 -16.649820 -19.809931 44.363394 6.552984 -52.020901 2.411965 -15.806492 67.977390 -21.898918 6.008826 24.791760 5.443813 -0.946962 -18.828759 5.672696 -4.200425 -48.884021 2.214326 24.385017 66.409443 23.283044 -15.542817 3.769458 -1.497671 -0.064343 0.049641 -0.000705
-114.003548 58.293871 98.357574 174.889705 -23.433152 -1.512171 5.517090 20.161079 2.126269 0.638285 2.614445 0.155685 1.048374 4.273901 0.269950 4.481303 17.279319 1.622215 -3.320893 9.762810 -0.164363 -6.337189 -17.602271 1.190745 -2.165337 0.150529 0.693801 -4.910759 -13.410388 -6.615314 131.632355 -51.746439 -128.256528 17.556639 -14.167800 -54.240283 -3.171426 0.722959 -0.350979 19.773523 -9.385781 -8.337385 -107.946300 -37.794074 119.864528 -16.645239 -19.822212 44.361546 6.546475 -52.036583 2.383399 -15.839344 67.987065 -21.922282 6.030113 24.788947 5.440282 -0.945832 -18.830446 5.654588 -4.171805 -48.892912 2.187060 24.380704 66.409964 23.276186 -15.542372 3.779213 -1.495105 -0.068233 0.043482 -0.005010
-114.004147 58.293417 98.355398 174.888404 -23.421996 -1.469045 5.496780 20.108809 2.092604 0.637529 2.630115 0.147788 1.042654 4.223215 0.273544 4.470099 17.212716 1.612032 -3.252453 9.804823 -0.192287 -6.230482 -17.522635 1.123612 -2.147568 0.153270 0.671336 -4.927893 -13.404145 -6.627090 131.679495 -51.743160 -128.275146 17.554490 -14.148297 -54.242920 -3.173465 0.706902 -0.354252 19.772211 -9.361180 -8.325108 -107.972904 -37.787278 119.891806 -16.640747 -19.841725 44.365543 6.577651 -52.052399 2.313715 -15.895088 67.996999 -21.961685 6.041586 24.777068 5.423221 -0.933411 -18.824732 5.641962 -4.089722 -48.903649 2.128560 24.461394 66.391712 23.322327 -15.591990 3.805685 -1.466734 -0.075229 0.031465 -0.004100
-113.998948 58.293965 98.352338 174.899723 -23.419798 -1.466256 5.481792 20.062831 2.099951 0.633940 2.645944 0.138443 1.040424 4.172443 0.278608 4.466815 17.234260 1.605031 -3.198647 9.779736 -0.211820 -6.114375 -17.463739 1.052976 -2.137444 0.065754 0.652749 -4.939854 -13.398814 -6.641385 131.727104 -51.740659 -128.297377 17.554558 -14.132118 -54.250191 -3.186944 0.598089 -0.351817 19.770615 -9.335863 -8.315541 -108.004461 -37.789794 119.923857 -16.636602 -19.870881 44.369170 6.567564 -52.057527 2.300115 -15.954341 68.001857 -21.998711 6.031720 24.771334 5.419315 -0.914361 -18.823118 5.614343 -4.050639 -48.904820 2.120540 24.474813 66.385085 23.321284 -15.623860 3.829462 -1.456203 -0.048955 0.036216 -0.009077
